<svg id="Layer_1" data-name="Layer 1" xmlns="http://www.w3.org/2000/svg" viewBox="0 0 1367.55 768"><defs><style>.cls-1{fill:#8fc73e;}.cls-2{fill:#fff;}.cls-2,.cls-4,.cls-5{stroke:#231f20;stroke-miterlimit:10;}.cls-3{fill:#9adaef;}.cls-4{fill:#a97c50;}.cls-5{fill:#dd8326;}</style></defs><rect class="cls-1" y="106.07" width="1367.05" height="661.93"/><path class="cls-2" d="M-15,139.13" transform="translate(1.05)"/><path class="cls-2" d="M63.09,54.3" transform="translate(1.05)"/><polyline class="cls-3" points="0 155.81 341.42 163.96 452.05 212.15 879.36 212.15 992.03 155.81 1367.05 155.81 1367.05 0 1.04 0"/><polyline class="cls-4" points="1.04 139.13 70.8 54.3 205.03 89.31 330.06 82.58 357.69 280.53 1.04 615.83"/><polyline class="cls-5" points="960.93 257.65 1005.44 32.47 1083.15 41.63 1095.77 12.83 1160.84 12.83 1243.71 57.34 1224.07 135.24 1254.18 126.73 1327.5 142.44 1348.45 92.69 1367.05 103.43 1367.05 666.12"/></svg>