{
    "asset": {
        "version": "2.0",
        "generator": "Open Asset Import Library (assimp v5.0.5eb040c7)"
    },
    "accessors": [
        {
            "bufferView": 0,
            "byteOffset": 0,
            "componentType": 5126,
            "count": 3842,
            "type": "VEC3",
            "max": [
                -0.005060315132141113,
                2.3564772605895998,
                85.13095092773438
            ],
            "min": [
                -4.237756729125977,
                -2.005958080291748,
                28.091285705566408
            ]
        },
        {
            "bufferView": 1,
            "byteOffset": 0,
            "componentType": 5126,
            "count": 3842,
            "type": "VEC3",
            "max": [
                0.9977964758872986,
                0.9998091459274292,
                1.0
            ],
            "min": [
                -0.9982734322547913,
                -0.999903678894043,
                -0.999143123626709
            ]
        },
        {
            "bufferView": 2,
            "byteOffset": 0,
            "componentType": 5126,
            "count": 3842,
            "type": "VEC4",
            "max": [
                1.0,
                1.0,
                1.0,
                1.0
            ],
            "min": [
                1.0,
                1.0,
                1.0,
                1.0
            ]
        },
        {
            "bufferView": 3,
            "byteOffset": 0,
            "componentType": 5125,
            "count": 11040,
            "type": "SCALAR",
            "max": [
                3841
            ],
            "min": [
                0
            ]
        },
        {
            "bufferView": 4,
            "byteOffset": 0,
            "componentType": 5126,
            "count": 473,
            "type": "VEC3",
            "max": [
                6.812587261199951,
                1.6521291732788087,
                30.209999084472658
            ],
            "min": [
                -6.812587261199951,
                -2.0501391887664797,
                -9.5367431640625e-7
            ]
        },
        {
            "bufferView": 5,
            "byteOffset": 0,
            "componentType": 5126,
            "count": 473,
            "type": "VEC3",
            "max": [
                0.9999973177909851,
                0.9999955892562866,
                0.9990411996841431
            ],
            "min": [
                -0.9999713897705078,
                -0.9999955892562866,
                -0.9990411996841431
            ]
        },
        {
            "bufferView": 6,
            "byteOffset": 0,
            "componentType": 5126,
            "count": 473,
            "type": "VEC4",
            "max": [
                1.0,
                1.0,
                1.0,
                1.0
            ],
            "min": [
                1.0,
                1.0,
                1.0,
                1.0
            ]
        },
        {
            "bufferView": 7,
            "byteOffset": 0,
            "componentType": 5125,
            "count": 2676,
            "type": "SCALAR",
            "max": [
                472
            ],
            "min": [
                0
            ]
        }
    ],
    "buffers": [
        {
            "byteLength": 227464,
            "uri": "result.bin"
        }
    ],
    "bufferViews": [
        {
            "buffer": 0,
            "byteOffset": 0,
            "byteLength": 46104,
            "target": 34962
        },
        {
            "buffer": 0,
            "byteOffset": 46104,
            "byteLength": 46104,
            "target": 34962
        },
        {
            "buffer": 0,
            "byteOffset": 92208,
            "byteLength": 61472,
            "target": 34962
        },
        {
            "buffer": 0,
            "byteOffset": 153680,
            "byteLength": 44160,
            "target": 34963
        },
        {
            "buffer": 0,
            "byteOffset": 197840,
            "byteLength": 5676,
            "target": 34962
        },
        {
            "buffer": 0,
            "byteOffset": 203516,
            "byteLength": 5676,
            "target": 34962
        },
        {
            "buffer": 0,
            "byteOffset": 209192,
            "byteLength": 7568,
            "target": 34962
        },
        {
            "buffer": 0,
            "byteOffset": 216760,
            "byteLength": 10704,
            "target": 34963
        }
    ],
    "materials": [
        {
            "name": "Material #30",
            "pbrMetallicRoughness": {
                "baseColorFactor": [
                    0.5879999995231628,
                    0.5879999995231628,
                    0.5879999995231628,
                    1.0
                ],
                "metallicFactor": 0.0,
                "roughnessFactor": 0.959750771522522
            }
        }
    ],
    "meshes": [
        {
            "name": "Fishing Line",
            "primitives": [
                {
                    "mode": 4,
                    "material": 0,
                    "indices": 3,
                    "attributes": {
                        "POSITION": 0,
                        "NORMAL": 1,
                        "COLOR_0": 2
                    }
                }
            ]
        },
        {
            "name": "Fish Hook",
            "primitives": [
                {
                    "mode": 4,
                    "material": 0,
                    "indices": 7,
                    "attributes": {
                        "POSITION": 4,
                        "NORMAL": 5,
                        "COLOR_0": 6
                    }
                }
            ]
        }
    ],
    "nodes": [
        {
            "name": "RootNode",
            "children": [
                1
            ]
        },
        {
            "name": "Fishing Line_$AssimpFbx$_Translation",
            "matrix": [
                1.0,
                0.0,
                0.0,
                0.0,
                0.0,
                1.0,
                0.0,
                0.0,
                0.0,
                0.0,
                1.0,
                0.0,
                0.0,
                4.0,
                -0.0,
                1.0
            ],
            "children": [
                2
            ]
        },
        {
            "name": "Fishing Line_$AssimpFbx$_PreRotation",
            "matrix": [
                1.0,
                0.0,
                0.0,
                0.0,
                0.0,
                -4.371138828673793e-8,
                -1.0,
                0.0,
                0.0,
                1.0,
                -4.371138828673793e-8,
                0.0,
                0.0,
                0.0,
                0.0,
                1.0
            ],
            "children": [
                3
            ]
        },
        {
            "name": "Fishing Line_$AssimpFbx$_Scaling",
            "matrix": [
                0.038026001304388049,
                0.0,
                0.0,
                0.0,
                0.0,
                0.038026001304388049,
                0.0,
                0.0,
                0.0,
                0.0,
                0.038026001304388049,
                0.0,
                0.0,
                0.0,
                0.0,
                1.0
            ],
            "children": [
                4
            ]
        },
        {
            "name": "Fishing Line_$AssimpFbx$_GeometricTranslation",
            "matrix": [
                1.0,
                0.0,
                0.0,
                0.0,
                0.0,
                1.0,
                0.0,
                0.0,
                0.0,
                0.0,
                1.0,
                0.0,
                1.2261327505111695,
                0.1976630836725235,
                -85.01470184326172,
                1.0
            ],
            "children": [
                5
            ]
        },
        {
            "name": "Fishing Line",
            "children": [
                6
            ],
            "mesh": 0
        },
        {
            "name": "Fishing Line_$AssimpFbx$_GeometricTranslationInverse",
            "matrix": [
                1.0,
                0.0,
                0.0,
                0.0,
                0.0,
                1.0,
                0.0,
                0.0,
                0.0,
                0.0,
                1.0,
                0.0,
                -1.2261327505111695,
                -0.1976630836725235,
                85.01470184326172,
                1.0
            ],
            "children": [
                7
            ]
        },
        {
            "name": "Fish Hook_$AssimpFbx$_GeometricTranslation",
            "matrix": [
                1.0,
                0.0,
                0.0,
                0.0,
                0.0,
                1.0,
                0.0,
                0.0,
                0.0,
                0.0,
                1.0,
                0.0,
                1.2261327505111695,
                0.1976630836725235,
                -85.01470184326172,
                1.0
            ],
            "children": [
                8
            ]
        },
        {
            "name": "Fish Hook",
            "mesh": 1
        }
    ],
    "scenes": [
        {
            "nodes": [
                0
            ]
        }
    ],
    "scene": 0
}